<svg width="603" height="435" viewBox="0 0 603 435" fill="none" xmlns="http://www.w3.org/2000/svg">
<g clip-path="url(#clip0_741_149)">
<circle cx="101" cy="97" r="40" fill="#BB1717"/>
<circle cx="364" cy="87" r="40" fill="#6F2525"/>
<circle cx="364" cy="87" r="40" stroke="white"/>
<circle cx="214" cy="137" r="80" fill="#266EB0"/>
<circle cx="214" cy="137" r="80" stroke="white"/>
<circle cx="477" cy="127" r="80" fill="#9747FF"/>
<circle cx="477" cy="127" r="80" stroke="white"/>
<circle cx="477" cy="287" r="80" fill="#FFA800"/>
<circle cx="477" cy="287" r="80" stroke="white"/>
<circle cx="101" cy="177" r="40" fill="#606F25"/>
<circle cx="364" cy="167" r="40" fill="#256F2C"/>
<circle cx="364" cy="167" r="40" stroke="white"/>
<circle cx="101" cy="257" r="40" fill="#6F2568"/>
<circle cx="101" cy="257" r="40" stroke="white"/>
<circle cx="364" cy="247" r="40" fill="#FB47FF"/>
<circle cx="364" cy="247" r="40" stroke="white"/>
<circle cx="101" cy="337" r="40" fill="#FFA800"/>
<circle cx="364" cy="327" r="40" fill="#266EB0"/>
<circle cx="364" cy="327" r="40" stroke="white"/>
</g>
<defs>
<clipPath id="clip0_741_149">
<rect width="603" height="435" fill="white"/>
</clipPath>
</defs>
</svg>
